<?xml version="1.0" encoding="utf-8"?>
<!-- Generator: Adobe Illustrator 24.2.0, SVG Export Plug-In . SVG Version: 6.00 Build 0)  -->
<svg version="1.1" id="Layer_1" xmlns="http://www.w3.org/2000/svg" xmlns:xlink="http://www.w3.org/1999/xlink" x="0px" y="0px"
	 viewBox="0 0 32 32" style="enable-background:new 0 0 32 32;" xml:space="preserve">
<style type="text/css">
	.st0{fill:none;}
	.st1{fill:#262626;}
	.st2{filter:url(#Adobe_OpacityMaskFilter);}
	.st3{fill-rule:evenodd;clip-rule:evenodd;fill:#FFFFFF;}
	.st4{mask:url(#mask-2_1_);}
	.st5{fill-rule:evenodd;clip-rule:evenodd;fill:#F03040;}
</style>
<g id="Box">
	<rect x="0" y="0" class="st0" width="32" height="32"/>
</g>
<g id="_x33_2-_x2F_-abb_x5F_error-circle-1_x5F_32-copy">
	<g id="Mask">
		<path id="path-1_1_" class="st1" d="M16,2C8.3,2,2,8.3,2,16s6.3,14,14,14s14-6.3,14-14c0-3.7-1.5-7.3-4.1-9.9S19.7,2,16,2z
			 M22.1,19.9l-2.1,2.1L16,18.1l-3.9,3.9l-2.1-2.1l3.9-3.9l-3.9-3.9l2.1-2.1l3.9,3.9l3.9-3.9l2.1,2.1L18.1,16L22.1,19.9z"/>
	</g>
	<defs>
		<filter id="Adobe_OpacityMaskFilter" filterUnits="userSpaceOnUse" x="-1" y="-1" width="34" height="34">
			<feColorMatrix  type="matrix" values="1 0 0 0 0  0 1 0 0 0  0 0 1 0 0  0 0 0 1 0"/>
		</filter>
	</defs>
	<mask maskUnits="userSpaceOnUse" x="-1" y="-1" width="34" height="34" id="mask-2_1_">
		<g class="st2">
			<path id="path-1_2_" class="st3" d="M16,2C8.3,2,2,8.3,2,16s6.3,14,14,14s14-6.3,14-14c0-3.7-1.5-7.3-4.1-9.9S19.7,2,16,2z
				 M22.1,19.9l-2.1,2.1L16,18.1l-3.9,3.9l-2.1-2.1l3.9-3.9l-3.9-3.9l2.1-2.1l3.9,3.9l3.9-3.9l2.1,2.1L18.1,16L22.1,19.9z"/>
		</g>
	</mask>
	<g id="_x21B3_-_xD83C__xDFA8_-Icon-color" class="st4">
		<g id="Rectangle" transform="translate(-1.000000, -1.000000)">
			<rect class="st5" width="34" height="34"/>
		</g>
	</g>
</g>
</svg>
