<?xml version="1.0" encoding="utf-8"?>
<!-- Generator: Adobe Illustrator 24.2.0, SVG Export Plug-In . SVG Version: 6.00 Build 0)  -->
<svg version="1.1" id="Layer_1" xmlns="http://www.w3.org/2000/svg" xmlns:xlink="http://www.w3.org/1999/xlink" x="0px" y="0px"
	 viewBox="0 0 32 32" style="enable-background:new 0 0 32 32;" xml:space="preserve">
<style type="text/css">
	.st0{fill:none;}
	.st1{fill:#3366FF;}
</style>
<g id="Box">
	<rect x="0" class="st0" width="32" height="32"/>
</g>
<g id="Page-1">
	<g id="abb_information-circle-1_32">
		<path id="Shape" class="st1" d="M16,2C8.3,2,2,8.3,2,16s6.3,14,14,14s14-6.3,14-14c0-3.7-1.5-7.3-4.1-9.9S19.7,2,16,2z M18,25h-3
			v-9h-2v-2h3.4c0.9,0,1.6,0.7,1.6,1.6V25z M16,12c-1.1,0-2-0.9-2-2s0.9-2,2-2s2,0.9,2,2S17.1,12,16,12z"/>
	</g>
</g>
</svg>
