<svg xmlns="http://www.w3.org/2000/svg" viewBox="0 0 24 24"><rect width="24" height="24" fill="none"/><path d="M2,3V6H4V4H6V2H3A1,1,0,0,0,2,3Z" fill="#1f1f1f"/><path d="M21,2H18V4h2V6h2V3A1,1,0,0,0,21,2Z" fill="#1f1f1f"/><path d="M20,20H18v2h3a1,1,0,0,0,1-1V18H20Z" fill="#1f1f1f"/><path d="M4,18H2v3a1,1,0,0,0,1,1H6V20H4Z" fill="#1f1f1f"/><rect x="2" y="8" width="2" height="3" fill="#1f1f1f"/><rect x="2" y="13" width="2" height="3" fill="#1f1f1f"/><rect x="20" y="13" width="2" height="3" fill="#1f1f1f"/><rect x="20" y="8" width="2" height="3" fill="#1f1f1f"/><rect x="13" y="2" width="3" height="2" fill="#1f1f1f"/><rect x="8" y="2" width="3" height="2" fill="#1f1f1f"/><rect x="8" y="20" width="3" height="2" fill="#1f1f1f"/><rect x="13" y="20" width="3" height="2" fill="#1f1f1f"/></svg>