<svg xmlns="http://www.w3.org/2000/svg" viewBox="0 0 32 32"><defs><style>.cls-1{fill:none;}.cls-2{fill:#1f1f1f;}</style></defs><title>abb_touch_32</title><g id="Box"><rect class="cls-1" width="32" height="32"/></g><g id="Robotics"><path class="cls-2" d="M23.42,14.08c1,0,1.94,1.25,2.22,2.87l1.3,7.78C27.73,29.41,24.3,30,23.42,30H9.23l-5-10.64a2.81,2.81,0,0,1,4.83-2.82V8a2.87,2.87,0,0,1,5.74,0V11.7a2.75,2.75,0,0,1,.95-.17,2.88,2.88,0,0,1,2.56,1.57,2.84,2.84,0,0,1,1.26-.29,2.87,2.87,0,0,1,2.56,1.56A2.87,2.87,0,0,1,23.42,14.08ZM23.85,17c-.18-1.19-1.38-.91-1.38,0v4.14H20.56V15.67a1,1,0,0,0-1.91,0v5.42H16.74V14.4a1,1,0,1,0-1.91,0v6.79H12.91V8A1,1,0,0,0,11,8V21.19H9.24l-.15-.35L7.62,17.78a.89.89,0,0,0-1.19-.43A.9.9,0,0,0,6,18.54l4.45,9.54H22.23q3.48.33,2.86-3.46ZM6,9.64a6.41,6.41,0,0,1-.19-1.53,6.12,6.12,0,0,1,12.23,0,5.94,5.94,0,0,1-.2,1.53H16.28a4.59,4.59,0,1,0-8.65,0Z"/></g></svg>