<?xml version="1.0" encoding="utf-8"?>
<!-- Generator: Adobe Illustrator 24.2.0, SVG Export Plug-In . SVG Version: 6.00 Build 0)  -->
<svg version="1.1" id="Layer_1" xmlns="http://www.w3.org/2000/svg" xmlns:xlink="http://www.w3.org/1999/xlink" x="0px" y="0px"
	 viewBox="0 0 32 32" style="enable-background:new 0 0 32 32;" xml:space="preserve">
<style type="text/css">
	.st0{fill:none;}
	.st1{fill:#262626;}
	.st2{filter:url(#Adobe_OpacityMaskFilter);}
	.st3{fill-rule:evenodd;clip-rule:evenodd;fill:#FFFFFF;}
	.st4{mask:url(#mask-2_1_);}
	.st5{fill-rule:evenodd;clip-rule:evenodd;fill:#FF7300;}
</style>
<g id="Box">
	<rect x="-3.9" y="9.9" class="st0" width="32" height="32"/>
</g>
<g id="_x33_2-_x2F_-abb_x5F_warning-triangle_x5F_32-copy">
	<g id="Mask">
		<path id="path-1_1_" class="st1" d="M29.9,26.4L17,4.5C16.8,4.2,16.4,4,16,4c-0.4,0-0.8,0.2-1,0.5L2.2,26.4
			c-0.2,0.3-0.2,0.8,0,1.1s0.6,0.5,1,0.5h25.7c0.4,0,0.8-0.2,0.9-0.5C30,27.2,30,26.7,29.9,26.4z M17,24h-2v-2h2V24z M17,20h-2v-8h2
			V20z"/>
	</g>
	<defs>
		<filter id="Adobe_OpacityMaskFilter" filterUnits="userSpaceOnUse" x="0" y="0" width="32" height="32">
			<feColorMatrix  type="matrix" values="1 0 0 0 0  0 1 0 0 0  0 0 1 0 0  0 0 0 1 0"/>
		</filter>
	</defs>
	<mask maskUnits="userSpaceOnUse" x="0" y="0" width="32" height="32" id="mask-2_1_">
		<g class="st2">
			<path id="path-1_2_" class="st3" d="M29.9,26.4L17,4.5C16.8,4.2,16.4,4,16,4c-0.4,0-0.8,0.2-1,0.5L2.2,26.4
				c-0.2,0.3-0.2,0.8,0,1.1s0.6,0.5,1,0.5h25.7c0.4,0,0.8-0.2,0.9-0.5C30,27.2,30,26.7,29.9,26.4z M17,24h-2v-2h2V24z M17,20h-2v-8
				h2V20z"/>
		</g>
	</mask>
	<g id="_x21B3_-_xD83C__xDFA8_-Icon-color" class="st4">
		<g id="Rectangle" transform="translate(-1.000000, -1.000000)">
			<rect x="1" y="1" class="st5" width="32" height="32"/>
		</g>
	</g>
</g>
</svg>
