<svg version="1.0" xmlns="http://www.w3.org/2000/svg"
 class="icon-svg icon-start" width="438.000000pt" height="438.000000pt" viewBox="0 0 438.000000 438.000000"
 preserveAspectRatio="xMidYMid meet">

<g transform="translate(0.000000,438.000000) scale(0.100000,-0.100000)"
fill="#4c85ff" stroke="none">
<path d="M1991 4369 c-439 -39 -866 -218 -1211 -507 -343 -287 -594 -684 -705
-1117 -53 -206 -69 -333 -69 -555 0 -445 114 -833 352 -1195 368 -563 957
-919 1626 -984 651 -64 1290 166 1755 630 180 181 302 352 416 584 151 308
225 624 225 965 0 941 -602 1777 -1493 2075 -294 98 -584 132 -896 104z m-280
-938 c30 -11 149 -76 264 -144 116 -68 484 -285 818 -482 355 -209 629 -377
658 -403 126 -113 124 -241 -6 -367 -36 -35 -161 -114 -426 -270 -206 -121
-567 -334 -804 -474 -236 -140 -458 -266 -491 -282 -157 -72 -265 -38 -330
103 l-29 63 0 1055 0 1055 28 57 c43 88 102 121 203 113 33 -2 85 -13 115 -24z"/>
</g>
</svg>
