<svg version="1.0" xmlns="http://www.w3.org/2000/svg"
 class="icon-svg icon-stop" width="439.000000pt" height="439.000000pt" viewBox="0 0 439.000000 439.000000"
 preserveAspectRatio="xMidYMid meet">

<g transform="translate(0.000000,439.000000) scale(0.100000,-0.100000)"
fill="#9f9f9f" stroke="none">
<path d="M2055 4384 c-337 -33 -557 -91 -810 -213 -233 -112 -416 -242 -600
-426 -346 -346 -560 -781 -626 -1275 -19 -140 -16 -441 5 -580 97 -634 442
-1176 968 -1521 485 -317 1066 -428 1638 -313 758 152 1390 711 1634 1444 153
458 153 941 1 1396 -259 778 -943 1350 -1757 1469 -107 15 -376 27 -453 19z
m874 -1075 c171 -37 305 -183 346 -377 21 -99 21 -1385 0 -1485 -30 -143 -115
-249 -249 -313 -133 -63 -165 -65 -898 -62 -647 3 -654 4 -712 26 -154 58
-239 147 -298 312 l-23 65 -3 695 c-2 479 1 716 8 762 36 211 196 353 445 391
55 9 1339 -5 1384 -14z"/>
</g>
</svg>
