<svg version="1.0" xmlns="http://www.w3.org/2000/svg"
 width="439.000000pt" height="439.000000pt" viewBox="0 0 439.000000 439.000000"
 preserveAspectRatio="xMidYMid meet">

<g transform="translate(0.000000,439.000000) scale(0.100000,-0.100000)"
fill="#9f9f9f" stroke="none">
<path d="M2055 4384 c-337 -33 -557 -91 -810 -213 -233 -112 -416 -242 -600
-426 -346 -346 -560 -781 -626 -1275 -19 -140 -16 -441 5 -580 97 -634 442
-1176 968 -1521 485 -317 1066 -428 1638 -313 758 152 1390 711 1634 1444 153
458 153 941 1 1396 -259 778 -943 1350 -1757 1469 -107 15 -376 27 -453 19z
m587 -291 c14 -13 18 -31 18 -87 -1 -39 -52 -398 -114 -799 -110 -714 -112
-728 -92 -732 12 -3 147 -25 301 -50 296 -48 344 -63 390 -117 21 -25 25 -40
25 -91 0 -39 -7 -77 -19 -104 -11 -22 -256 -360 -547 -750 -290 -389 -576
-774 -636 -855 -109 -147 -175 -218 -202 -218 -33 0 -46 30 -45 103 0 40 51
398 113 797 62 399 110 726 106 728 -3 1 -139 24 -302 51 -303 51 -349 64
-396 114 -49 52 -44 157 12 246 25 39 305 416 943 1269 312 416 390 512 422
512 3 0 13 -7 23 -17z"/>
</g>
</svg>
