<svg version="1.0" xmlns="http://www.w3.org/2000/svg"
 width="438.000000pt" height="438.000000pt" viewBox="0 0 438.000000 438.000000"
 preserveAspectRatio="xMidYMid meet">

<g transform="translate(0.000000,438.000000) scale(0.100000,-0.100000)"
fill="#4c85ff" stroke="none">
<path d="M1991 4369 c-439 -39 -866 -218 -1211 -507 -343 -287 -594 -684 -705
-1117 -53 -206 -69 -333 -69 -555 0 -218 16 -348 65 -544 202 -804 868 -1439
1679 -1600 494 -98 963 -38 1405 179 445 219 781 555 1000 1000 151 308 225
624 225 965 0 1039 -736 1940 -1751 2144 -220 44 -412 55 -638 35z m651 -286
c14 -13 18 -31 18 -87 -1 -39 -52 -398 -114 -799 -110 -714 -112 -728 -92
-732 12 -3 147 -25 301 -50 296 -48 344 -63 390 -117 21 -25 25 -40 25 -91 0
-39 -7 -77 -19 -104 -11 -22 -256 -360 -547 -750 -290 -389 -576 -774 -636
-855 -107 -144 -175 -218 -201 -218 -69 1 -65 59 66 900 63 399 111 726 107
728 -3 1 -139 24 -302 51 -303 51 -349 64 -396 114 -49 52 -44 157 12 246 25
39 305 416 943 1269 312 416 390 512 422 512 3 0 13 -7 23 -17z"/>
</g>
</svg>


