<svg version="1.0" xmlns="http://www.w3.org/2000/svg"
 width="439.000000pt" height="439.000000pt" viewBox="0 0 439.000000 439.000000"
 preserveAspectRatio="xMidYMid meet">

<g transform="translate(0.000000,439.000000) scale(0.100000,-0.100000)"
fill="#9f9f9f" stroke="none">
<path d="M2055 4384 c-337 -33 -557 -91 -810 -213 -233 -112 -416 -242 -600
-426 -346 -346 -560 -781 -626 -1275 -19 -140 -16 -441 5 -580 97 -634 442
-1176 968 -1521 485 -317 1066 -428 1638 -313 758 152 1390 711 1634 1444 153
458 153 941 1 1396 -259 778 -943 1350 -1757 1469 -107 15 -376 27 -453 19z
m-19 -776 c34 -24 61 -65 141 -218 216 -411 429 -808 441 -823 22 -25 63 -18
81 14 14 25 9 38 -168 369 -100 189 -187 362 -193 386 -40 149 144 273 267
180 19 -15 52 -57 73 -94 39 -67 618 -1155 706 -1327 205 -398 129 -770 -209
-1027 -258 -197 -580 -299 -842 -268 -120 15 -203 40 -313 95 -197 99 -917
498 -942 522 -43 41 -71 118 -66 179 6 74 42 125 113 159 93 46 136 37 361
-73 103 -50 190 -90 192 -87 2 2 -142 277 -320 610 -177 334 -331 626 -340
649 -24 57 -22 105 5 157 56 107 219 122 289 28 14 -19 112 -198 218 -399 106
-201 202 -377 212 -392 11 -16 29 -28 40 -28 26 0 58 27 58 48 0 9 -115 233
-256 500 -142 266 -263 500 -270 520 -20 56 -17 101 11 147 37 63 85 88 161
83 106 -7 97 6 399 -561 176 -332 276 -509 289 -515 28 -12 63 1 71 28 8 26
19 3 -259 523 -135 253 -220 423 -223 446 -20 147 151 253 273 169z"/>
</g>
</svg>
