<svg version="1.0" xmlns="http://www.w3.org/2000/svg"
 width="438.000000pt" height="438.000000pt" viewBox="0 0 438.000000 438.000000"
 preserveAspectRatio="xMidYMid meet">

<g transform="translate(0.000000,438.000000) scale(0.100000,-0.100000)"
fill="#4c85ff" stroke="none">
<path d="M1991 4369 c-439 -39 -866 -218 -1211 -507 -343 -287 -594 -684 -705
-1117 -53 -206 -69 -333 -69 -555 0 -445 114 -833 352 -1195 368 -563 957
-919 1626 -984 651 -64 1290 166 1755 630 180 181 302 352 416 584 151 308
225 624 225 965 0 1039 -736 1940 -1751 2144 -220 44 -412 55 -638 35z m952
-616 c96 -70 235 -213 300 -311 186 -279 255 -618 192 -947 -89 -468 -458
-857 -921 -974 -302 -76 -561 -41 -764 103 -73 52 -73 52 -55 9 88 -211 303
-422 522 -513 149 -62 212 -74 393 -74 185 1 254 14 403 79 44 19 84 32 88 30
17 -11 118 -210 111 -217 -19 -19 -199 -90 -290 -114 -119 -32 -369 -44 -503
-25 -388 57 -742 309 -922 658 -189 366 -193 766 -12 1148 85 178 235 327 394
391 73 29 50 37 -96 32 -97 -4 -164 -12 -223 -27 -103 -27 -250 -95 -334 -155
-89 -63 -214 -199 -274 -295 -80 -131 -142 -326 -142 -450 0 -27 -4 -52 -8
-55 -5 -3 -64 -2 -132 1 l-123 6 7 89 c22 294 176 609 396 810 488 447 1215
448 1706 4 141 -128 258 -302 306 -456 20 -65 23 -96 23 -232 0 -180 -4 -178
76 -46 109 180 161 411 138 615 -18 167 -81 340 -170 469 -50 73 -167 192
-239 242 -36 25 -67 47 -69 49 -7 5 121 213 131 213 6 0 47 -26 91 -57z"/>
<path d="M2120 2803 c-213 -35 -397 -212 -441 -421 -16 -78 -7 -214 19 -285
54 -149 180 -275 327 -329 75 -26 216 -35 294 -18 286 62 477 366 406 645 -70
273 -337 453 -605 408z"/>
</g>
</svg>
